<svg width="400" height="85" viewBox="0 0 400 85" fill="none" xmlns="http://www.w3.org/2000/svg">
<g clip-path="url(#clip0_5162_2268)">
<path d="M109.723 31.0233C108.281 30.6347 106.97 30.4404 105.725 30.4404C103.693 30.4404 102.119 30.829 100.874 31.6062C99.6283 32.3834 99.0384 33.4844 99.0384 34.7797C99.0384 35.9455 99.3661 36.9171 100.022 37.6943C100.677 38.4067 101.529 39.0544 102.513 39.443C103.496 39.8963 104.807 40.3497 106.511 40.8678C108.478 41.4507 110.117 42.0336 111.297 42.5518C112.542 43.1347 113.525 43.9119 114.378 45.0129C115.23 46.1139 115.623 47.5388 115.623 49.2875C115.623 50.8419 115.164 52.202 114.312 53.3678C113.46 54.5336 112.214 55.4404 110.641 56.088C109.068 56.7357 107.232 57.0595 105.135 57.0595C103.103 57.0595 101.136 56.6709 99.1695 55.829C97.2029 55.0518 95.5641 53.9507 94.1875 52.6554L95.4985 50.3238C96.8096 51.6191 98.3173 52.5906 100.087 53.3031C101.792 54.0155 103.496 54.4041 105.2 54.4041C107.429 54.4041 109.199 53.9507 110.51 53.044C111.821 52.1373 112.477 50.9715 112.477 49.4171C112.477 48.1865 112.149 47.215 111.493 46.4378C110.838 45.6606 109.986 45.0777 109.002 44.6891C108.019 44.3005 106.642 43.7823 104.873 43.2642C102.906 42.6813 101.333 42.0984 100.087 41.5803C98.9073 41.0621 97.8584 40.2202 97.0062 39.1839C96.1541 38.1476 95.7608 36.7227 95.7608 35.0388C95.7608 33.5492 96.1541 32.3186 97.0062 31.2176C97.8584 30.1165 99.0384 29.2746 100.546 28.6917C102.054 28.1088 103.824 27.7849 105.79 27.7849C107.364 27.7849 109.002 28.044 110.576 28.4974C112.149 28.9507 113.591 29.5984 114.836 30.3756L113.591 32.8367C112.411 31.9948 111.1 31.4119 109.723 31.0233Z" fill="#262626"/>
<path d="M152.267 59.5207C151.153 60.5569 149.973 61.3342 148.662 61.8523C147.416 62.4352 146.171 62.6943 144.925 62.6943C141.713 62.6943 138.698 60.8808 135.814 57.1891H135.289C132.471 57.1891 129.914 56.5414 127.62 55.1813C125.325 53.8212 123.424 52.0725 122.048 49.8057C120.671 47.5388 120.016 45.0777 120.016 42.4222C120.016 39.7668 120.671 37.3057 122.048 35.0388C123.424 32.8367 125.26 31.0233 127.62 29.7279C129.98 28.4326 132.536 27.7849 135.289 27.7849C138.108 27.7849 140.665 28.4326 142.959 29.7279C145.319 31.0233 147.154 32.8367 148.531 35.0388C149.907 37.2409 150.563 39.702 150.563 42.4222C150.563 44.6891 150.039 46.8264 149.055 48.8342C148.072 50.8419 146.695 52.5259 144.925 53.886C143.156 55.2461 141.189 56.2176 138.96 56.7357C141.189 59.0025 143.352 60.1684 145.253 60.1684C147.023 60.1684 148.924 59.2616 150.956 57.5129L152.267 59.5207ZM124.604 48.5103C125.719 50.3886 127.226 51.8782 129.127 52.9792C131.028 54.0803 133.061 54.5984 135.289 54.5984C137.518 54.5984 139.55 54.0803 141.451 52.9792C143.352 51.8782 144.86 50.3886 145.974 48.5103C147.089 46.6321 147.679 44.6243 147.679 42.4222C147.679 40.2202 147.089 38.2124 145.974 36.3341C144.86 34.4559 143.352 33.031 141.451 31.93C139.55 30.829 137.518 30.3108 135.289 30.3108C133.061 30.3108 130.963 30.829 129.127 31.93C127.226 33.031 125.719 34.4559 124.604 36.3341C123.49 38.2124 122.9 40.2202 122.9 42.4222C122.9 44.6243 123.49 46.6321 124.604 48.5103Z" fill="#262626"/>
<path d="M162.098 52.1373C163.737 53.8212 165.966 54.5984 168.915 54.5984C171.8 54.5984 174.094 53.7565 175.667 52.1373C177.306 50.4534 178.093 48.1865 178.093 45.2072V27.9793H180.977V45.2072C180.977 48.9637 179.928 51.8782 177.765 54.0155C175.602 56.1528 172.652 57.1891 168.85 57.1891C165.048 57.1891 162.098 56.1528 159.935 54.0155C157.771 51.8782 156.723 48.9637 156.723 45.2072V27.9793H159.607V45.2072C159.673 48.1865 160.459 50.4534 162.098 52.1373Z" fill="#262626"/>
<path d="M210.541 56.93L207.067 49.2227H190.81L187.401 56.93H184.32L197.496 28.044H200.512L213.688 56.93H210.541ZM191.99 46.6968H205.953L198.938 31.088L191.99 46.6968Z" fill="#262626"/>
<path d="M237.811 56.93L231.518 47.474C230.601 47.5388 229.945 47.5388 229.486 47.5388H221.423V56.8652H218.539V28.044H229.421C233.092 28.044 235.91 28.8859 237.877 30.5699C239.844 32.2538 240.892 34.5854 240.892 37.6295C240.892 40.0258 240.302 42.0336 239.122 43.6528C237.943 45.2719 236.304 46.373 234.075 47.0206L241.089 56.9947H237.811V56.93ZM229.421 45.0129C232.239 45.0129 234.337 44.3652 235.845 43.1346C237.353 41.9041 238.074 40.0906 238.074 37.6942C238.074 35.3626 237.353 33.6139 235.845 32.3833C234.337 31.1528 232.174 30.5699 229.421 30.5699H221.358V45.0129H229.421Z" fill="#262626"/>
<path d="M248.762 28.044H268.362V30.6346H251.646V40.9973H266.592V43.588H251.646V54.4688H268.886V57.0595H248.762V28.044Z" fill="#262626"/>
<path d="M288.748 33.2901C287.175 32.772 285.798 32.5777 284.553 32.5777C283.242 32.5777 282.127 32.8368 281.341 33.2901C280.554 33.8083 280.161 34.4559 280.161 35.3627C280.161 36.1399 280.423 36.8523 280.947 37.3705C281.472 37.8886 282.193 38.342 282.979 38.6658C283.832 38.9896 284.946 39.3782 286.322 39.8316C288.289 40.4145 289.928 40.9974 291.173 41.5803C292.419 42.1632 293.533 43.0052 294.385 44.171C295.303 45.272 295.696 46.7616 295.696 48.6399C295.696 50.3886 295.238 51.943 294.254 53.2383C293.271 54.5337 291.96 55.5699 290.256 56.2176C288.551 56.93 286.65 57.2539 284.487 57.2539C282.193 57.2539 279.964 56.8653 277.801 56.0233C275.637 55.1813 273.736 54.0803 272.098 52.6554L274.654 47.9274C276.162 49.2876 277.801 50.3238 279.636 51.101C281.472 51.8782 283.176 52.2668 284.815 52.2668C286.388 52.2668 287.634 51.943 288.486 51.3601C289.403 50.7772 289.797 49.9352 289.797 48.9637C289.797 48.1217 289.535 47.4741 289.01 46.8912C288.486 46.373 287.765 45.9197 286.912 45.5958C286.06 45.272 284.946 44.8834 283.504 44.4948C281.537 43.9119 279.898 43.329 278.653 42.8109C277.407 42.228 276.293 41.4508 275.441 40.285C274.523 39.1839 274.13 37.6943 274.13 35.8808C274.13 34.1969 274.589 32.7072 275.506 31.4767C276.424 30.2461 277.67 29.2746 279.374 28.5622C281.013 27.8497 282.979 27.5259 285.143 27.5259C287.044 27.5259 288.945 27.785 290.78 28.3679C292.616 28.9508 294.32 29.6632 295.762 30.5699L293.533 35.4274C291.894 34.5207 290.321 33.8083 288.748 33.2901Z" fill="#262626"/>
<path d="M301.266 27.9793H306.903V56.93H301.266V27.9793Z" fill="#262626"/>
<path d="M333.911 42.5517H338.827V53.5621C337.319 54.6631 335.484 55.6346 333.386 56.2823C331.288 56.9947 329.256 57.3186 327.224 57.3186C324.34 57.3186 321.718 56.6709 319.358 55.3108C316.998 54.0155 315.163 52.202 313.786 49.9352C312.409 47.6683 311.754 45.1424 311.754 42.3574C311.754 39.5725 312.475 37.1113 313.852 34.8445C315.228 32.5776 317.129 30.8289 319.555 29.5336C321.98 28.2383 324.668 27.5906 327.552 27.5906C329.65 27.5906 331.682 27.9792 333.714 28.6916C335.746 29.4041 337.516 30.4403 338.958 31.7357L335.746 35.816C334.632 34.7797 333.321 33.9377 331.878 33.3548C330.436 32.7719 328.929 32.5129 327.486 32.5129C325.651 32.5129 323.947 32.9662 322.373 33.8082C320.8 34.6502 319.62 35.8807 318.702 37.3704C317.785 38.86 317.391 40.544 317.391 42.3574C317.391 44.1709 317.85 45.8548 318.768 47.3445C319.686 48.8341 320.866 50.0647 322.439 50.9714C323.947 51.8782 325.651 52.2668 327.552 52.2668C328.535 52.2668 329.584 52.1372 330.699 51.8134C331.813 51.4896 332.862 51.0362 333.845 50.4533V42.5517H333.911Z" fill="#262626"/>
<path d="M365.706 27.9793H371.147V56.93H365.837L350.76 36.9819V56.93H345.254V27.9793H350.564L365.641 47.9275V27.9793H365.706Z" fill="#262626"/>
<path d="M392.123 33.2901C390.55 32.772 389.173 32.5777 387.928 32.5777C386.617 32.5777 385.502 32.8368 384.716 33.2901C383.929 33.8083 383.536 34.4559 383.536 35.3627C383.536 36.1399 383.798 36.8523 384.322 37.3705C384.847 37.8886 385.568 38.342 386.354 38.6658C387.207 38.9896 388.321 39.3782 389.698 39.8316C391.664 40.4145 393.303 40.9974 394.548 41.5803C395.794 42.1632 396.908 43.0052 397.76 44.171C398.678 45.272 399.071 46.7616 399.071 48.6399C399.071 50.3886 398.613 51.943 397.629 53.2383C396.646 54.5337 395.335 55.5699 393.631 56.2176C391.926 56.93 390.025 57.2539 387.862 57.2539C385.568 57.2539 383.339 56.8653 381.176 56.0233C379.012 55.1813 377.111 54.0803 375.473 52.6554L377.833 47.9274C379.34 49.2876 380.979 50.3238 382.815 51.101C384.65 51.8782 386.354 52.2668 387.993 52.2668C389.566 52.2668 390.812 51.943 391.664 51.3601C392.582 50.7772 392.975 49.9352 392.975 48.9637C392.975 48.1217 392.713 47.4741 392.188 46.8912C391.664 46.373 390.943 45.9197 390.091 45.5958C389.239 45.272 388.124 44.8834 386.682 44.4948C384.716 43.9119 383.077 43.329 381.831 42.8109C380.586 42.228 379.471 41.4508 378.619 40.285C377.701 39.1839 377.308 37.6943 377.308 35.8808C377.308 34.1969 377.767 32.7072 378.685 31.4767C379.602 30.2461 380.848 29.2746 382.552 28.5622C384.191 27.8497 386.158 27.5259 388.321 27.5259C390.222 27.5259 392.123 27.785 393.958 28.3679C395.794 28.9508 397.498 29.6632 398.94 30.5699L396.712 35.4274C395.269 34.5207 393.696 33.8083 392.123 33.2901Z" fill="#262626"/>
<path d="M52.5729 9.45596L19.0757 42.487L33.4317 56.671L52.5729 37.7591L57.3582 42.487L33.4317 66.0622L9.57063 42.487L47.7876 4.72798L43.0023 0L0 42.487L33.4317 75.5181L66.9289 42.487L52.5729 28.3031L33.4317 47.215L28.6463 42.487L52.5729 18.9119L76.434 42.487L38.217 80.2461L43.0023 84.9741L86.0046 42.487L52.5729 9.45596Z" fill="url(#paint0_linear_5162_2268)"/>
</g>
<defs>
<linearGradient id="paint0_linear_5162_2268" x1="21.4569" y1="63.9539" x2="63.9378" y2="20.6025" gradientUnits="userSpaceOnUse">
<stop stop-color="#0194D3"/>
<stop offset="1" stop-color="#00B495"/>
</linearGradient>
<clipPath id="clip0_5162_2268">
<rect width="400" height="84.9741" fill="white"/>
</clipPath>
</defs>
</svg>
