<svg width="57" height="72" viewBox="0 0 57 72" fill="none" xmlns="http://www.w3.org/2000/svg">
<path d="M55.5 72H34.5C33.6705 72 33 71.328 33 70.5V1.5C33 0.672 33.6705 0 34.5 0H55.5C56.3295 0 57 0.672 57 1.5V70.5C57 71.328 56.3295 72 55.5 72ZM36 69H54V3H36V69Z" fill="url(#paint0_linear_1794_258)"/>
<path d="M42 12H34.5V15H42V12Z" fill="url(#paint1_linear_1794_258)"/>
<path d="M42 21H34.5V24H42V21Z" fill="url(#paint2_linear_1794_258)"/>
<path d="M42 30H34.5V33H42V30Z" fill="url(#paint3_linear_1794_258)"/>
<path d="M42 39H34.5V42H42V39Z" fill="url(#paint4_linear_1794_258)"/>
<path d="M42 48H34.5V51H42V48Z" fill="url(#paint5_linear_1794_258)"/>
<path d="M42 57H34.5V60H42V57Z" fill="url(#paint6_linear_1794_258)"/>
<path d="M13.5 69H7.5C3.3645 69 0 65.6355 0 61.5V18C0 17.7045 0.0885003 17.4135 0.252 17.1675L9.252 3.6675C9.8085 2.832 11.1915 2.832 11.748 3.6675L20.748 17.1675C20.9115 17.4135 21 17.7045 21 18V61.5C21 65.6355 17.6355 69 13.5 69ZM3 18.4545V61.5C3 63.981 5.019 66 7.5 66H13.5C15.981 66 18 63.981 18 61.5V18.4545L10.5 7.2045L3 18.4545Z" fill="url(#paint7_linear_1794_258)"/>
<path d="M19.5 60H1.5C0.6705 60 0 59.328 0 58.5C0 57.672 0.6705 57 1.5 57H19.5C20.3295 57 21 57.672 21 58.5C21 59.328 20.3295 60 19.5 60Z" fill="url(#paint8_linear_1794_258)"/>
<path d="M19.5 54H1.5C0.6705 54 0 53.328 0 52.5C0 51.672 0.6705 51 1.5 51H19.5C20.3295 51 21 51.672 21 52.5C21 53.328 20.3295 54 19.5 54Z" fill="url(#paint9_linear_1794_258)"/>
<path d="M7.5 54C6.6705 54 6 53.328 6 52.5V24C6 23.172 6.6705 22.5 7.5 22.5C8.3295 22.5 9 23.172 9 24V52.5C9 53.328 8.3295 54 7.5 54Z" fill="url(#paint10_linear_1794_258)"/>
<path d="M13.5 54C12.6705 54 12 53.328 12 52.5V24C12 23.172 12.6705 22.5 13.5 22.5C14.3295 22.5 15 23.172 15 24V52.5C15 53.328 14.3295 54 13.5 54Z" fill="url(#paint11_linear_1794_258)"/>
<path d="M15 10.5H6V13.5H15V10.5Z" fill="url(#paint12_linear_1794_258)"/>
<path d="M6 25.5C2.691 25.5 0 22.809 0 19.5C0 18.672 0.6705 18 1.5 18C2.3295 18 3 18.672 3 19.5C3 21.1545 4.3455 22.5 6 22.5C7.6545 22.5 9 21.1545 9 19.5C9 18.672 9.6705 18 10.5 18C11.3295 18 12 18.672 12 19.5C12 22.809 9.309 25.5 6 25.5Z" fill="url(#paint13_linear_1794_258)"/>
<path d="M15 25.5C11.691 25.5 9 22.809 9 19.5C9 18.672 9.6705 18 10.5 18C11.3295 18 12 18.672 12 19.5C12 21.1545 13.3455 22.5 15 22.5C16.6545 22.5 18 21.1545 18 19.5C18 18.672 18.6705 18 19.5 18C20.3295 18 21 18.672 21 19.5C21 22.809 18.309 25.5 15 25.5Z" fill="url(#paint14_linear_1794_258)"/>
<defs>
<linearGradient id="paint0_linear_1794_258" x1="0" y1="0" x2="38.8779" y2="-9.74552" gradientUnits="userSpaceOnUse">
<stop stop-color="#0194D3"/>
<stop offset="1" stop-color="#00B495"/>
</linearGradient>
<linearGradient id="paint1_linear_1794_258" x1="0" y1="0" x2="38.8779" y2="-9.74552" gradientUnits="userSpaceOnUse">
<stop stop-color="#0194D3"/>
<stop offset="1" stop-color="#00B495"/>
</linearGradient>
<linearGradient id="paint2_linear_1794_258" x1="0" y1="0" x2="38.8779" y2="-9.74552" gradientUnits="userSpaceOnUse">
<stop stop-color="#0194D3"/>
<stop offset="1" stop-color="#00B495"/>
</linearGradient>
<linearGradient id="paint3_linear_1794_258" x1="0" y1="0" x2="38.8779" y2="-9.74552" gradientUnits="userSpaceOnUse">
<stop stop-color="#0194D3"/>
<stop offset="1" stop-color="#00B495"/>
</linearGradient>
<linearGradient id="paint4_linear_1794_258" x1="0" y1="0" x2="38.8779" y2="-9.74552" gradientUnits="userSpaceOnUse">
<stop stop-color="#0194D3"/>
<stop offset="1" stop-color="#00B495"/>
</linearGradient>
<linearGradient id="paint5_linear_1794_258" x1="0" y1="0" x2="38.8779" y2="-9.74552" gradientUnits="userSpaceOnUse">
<stop stop-color="#0194D3"/>
<stop offset="1" stop-color="#00B495"/>
</linearGradient>
<linearGradient id="paint6_linear_1794_258" x1="0" y1="0" x2="38.8779" y2="-9.74552" gradientUnits="userSpaceOnUse">
<stop stop-color="#0194D3"/>
<stop offset="1" stop-color="#00B495"/>
</linearGradient>
<linearGradient id="paint7_linear_1794_258" x1="0" y1="0" x2="38.8779" y2="-9.74552" gradientUnits="userSpaceOnUse">
<stop stop-color="#0194D3"/>
<stop offset="1" stop-color="#00B495"/>
</linearGradient>
<linearGradient id="paint8_linear_1794_258" x1="0" y1="0" x2="38.8779" y2="-9.74552" gradientUnits="userSpaceOnUse">
<stop stop-color="#0194D3"/>
<stop offset="1" stop-color="#00B495"/>
</linearGradient>
<linearGradient id="paint9_linear_1794_258" x1="0" y1="0" x2="38.8779" y2="-9.74552" gradientUnits="userSpaceOnUse">
<stop stop-color="#0194D3"/>
<stop offset="1" stop-color="#00B495"/>
</linearGradient>
<linearGradient id="paint10_linear_1794_258" x1="0" y1="0" x2="38.8779" y2="-9.74552" gradientUnits="userSpaceOnUse">
<stop stop-color="#0194D3"/>
<stop offset="1" stop-color="#00B495"/>
</linearGradient>
<linearGradient id="paint11_linear_1794_258" x1="0" y1="0" x2="38.8779" y2="-9.74552" gradientUnits="userSpaceOnUse">
<stop stop-color="#0194D3"/>
<stop offset="1" stop-color="#00B495"/>
</linearGradient>
<linearGradient id="paint12_linear_1794_258" x1="0" y1="0" x2="38.8779" y2="-9.74552" gradientUnits="userSpaceOnUse">
<stop stop-color="#0194D3"/>
<stop offset="1" stop-color="#00B495"/>
</linearGradient>
<linearGradient id="paint13_linear_1794_258" x1="0" y1="0" x2="38.8779" y2="-9.74552" gradientUnits="userSpaceOnUse">
<stop stop-color="#0194D3"/>
<stop offset="1" stop-color="#00B495"/>
</linearGradient>
<linearGradient id="paint14_linear_1794_258" x1="0" y1="0" x2="38.8779" y2="-9.74552" gradientUnits="userSpaceOnUse">
<stop stop-color="#0194D3"/>
<stop offset="1" stop-color="#00B495"/>
</linearGradient>
</defs>
</svg>