<svg width="72" height="72" viewBox="0 0 72 72" fill="none" xmlns="http://www.w3.org/2000/svg">
<path d="M72 72H16.5V69H69V16.5H72V72Z" fill="url(#paint0_linear_1794_260)"/>
<path d="M66 66H7.5V63H63V7.5H66V66Z" fill="url(#paint1_linear_1794_260)"/>
<path d="M57 3V57H3V3H57ZM60 0H0V60H60V0Z" fill="url(#paint2_linear_1794_260)"/>
<path d="M14.7855 47.2725L12.213 45.729L21.213 30.729C21.4635 30.3135 21.9 30.042 22.383 30.006C22.8735 29.964 23.3415 30.168 23.6505 30.5415L29.865 37.998L40.7505 21.669C41.0625 21.201 41.6115 20.949 42.1695 21.0105C42.729 21.075 43.2045 21.447 43.4025 21.975L52.4025 45.975L49.593 47.028L41.622 25.77L31.2465 41.3325C30.984 41.727 30.5505 41.973 30.078 41.9985C29.607 42.018 29.148 41.8245 28.8465 41.4615L22.698 34.0845L14.7855 47.2725Z" fill="url(#paint3_linear_1794_260)"/>
<path d="M18 21C14.691 21 12 18.309 12 15C12 11.691 14.691 9 18 9C21.309 9 24 11.691 24 15C24 18.309 21.309 21 18 21ZM18 12C16.3455 12 15 13.3455 15 15C15 16.6545 16.3455 18 18 18C19.6545 18 21 16.6545 21 15C21 13.3455 19.6545 12 18 12Z" fill="url(#paint4_linear_1794_260)"/>
<path d="M60 45H0V48H60V45Z" fill="url(#paint5_linear_1794_260)"/>
<defs>
<linearGradient id="paint0_linear_1794_260" x1="0" y1="0" x2="47.4386" y2="-15.0207" gradientUnits="userSpaceOnUse">
<stop stop-color="#0194D3"/>
<stop offset="1" stop-color="#00B495"/>
</linearGradient>
<linearGradient id="paint1_linear_1794_260" x1="0" y1="0" x2="47.4386" y2="-15.0207" gradientUnits="userSpaceOnUse">
<stop stop-color="#0194D3"/>
<stop offset="1" stop-color="#00B495"/>
</linearGradient>
<linearGradient id="paint2_linear_1794_260" x1="0" y1="0" x2="47.4386" y2="-15.0207" gradientUnits="userSpaceOnUse">
<stop stop-color="#0194D3"/>
<stop offset="1" stop-color="#00B495"/>
</linearGradient>
<linearGradient id="paint3_linear_1794_260" x1="0" y1="0" x2="47.4386" y2="-15.0207" gradientUnits="userSpaceOnUse">
<stop stop-color="#0194D3"/>
<stop offset="1" stop-color="#00B495"/>
</linearGradient>
<linearGradient id="paint4_linear_1794_260" x1="0" y1="0" x2="47.4386" y2="-15.0207" gradientUnits="userSpaceOnUse">
<stop stop-color="#0194D3"/>
<stop offset="1" stop-color="#00B495"/>
</linearGradient>
<linearGradient id="paint5_linear_1794_260" x1="0" y1="0" x2="47.4386" y2="-15.0207" gradientUnits="userSpaceOnUse">
<stop stop-color="#0194D3"/>
<stop offset="1" stop-color="#00B495"/>
</linearGradient>
</defs>
</svg>