<svg width="72" height="72" viewBox="0 0 72 72" fill="none" xmlns="http://www.w3.org/2000/svg">
<path d="M15 72C11.691 72 8.99999 69.309 8.99999 66C8.99999 62.691 11.691 60 15 60C18.309 60 21 62.691 21 66C21 69.309 18.309 72 15 72ZM15 63C13.3455 63 12 64.3455 12 66C12 67.6545 13.3455 69 15 69C16.6545 69 18 67.6545 18 66C18 64.3455 16.6545 63 15 63Z" fill="url(#paint0_linear_1794_262)"/>
<path d="M48 72C44.691 72 42 69.309 42 66C42 62.691 44.691 60 48 60C51.309 60 54 62.691 54 66C54 69.309 51.309 72 48 72ZM48 63C46.3455 63 45 64.3455 45 66C45 67.6545 46.3455 69 48 69C49.6545 69 51 67.6545 51 66C51 64.3455 49.6545 63 48 63Z" fill="url(#paint1_linear_1794_262)"/>
<path d="M31.5 24.0015C30.6705 24.0015 30 23.331 30 22.5015V1.50147C30 0.671974 30.6705 0.00147365 31.5 0.00147365C32.3295 0.00147365 33 0.671974 33 1.50147V22.5015C33 23.331 32.3295 24.0015 31.5 24.0015Z" fill="url(#paint2_linear_1794_262)"/>
<path d="M40.5 12.0015C40.116 12.0015 39.732 11.8545 39.4395 11.562L31.5 3.62247L23.5605 11.562C22.974 12.1485 22.026 12.1485 21.4395 11.562C20.853 10.9755 20.853 10.0275 21.4395 9.44097L30.4395 0.440974C31.026 -0.145526 31.974 -0.145526 32.5605 0.440974L41.5605 9.44097C42.147 10.0275 42.147 10.9755 41.5605 11.562C41.268 11.8545 40.884 12.0015 40.5 12.0015Z" fill="url(#paint3_linear_1794_262)"/>
<path d="M48 63H15C14.1705 63 13.5 62.3295 13.5 61.5C13.5 60.6705 14.1705 60 15 60L46.812 60L58.539 10.1565C58.6995 9.47847 59.304 8.99997 60 8.99997H70.5C71.3295 8.99997 72 9.67047 72 10.5C72 11.3295 71.3295 12 70.5 12H61.188L49.461 61.8435C49.3005 62.5215 48.696 63 48 63Z" fill="url(#paint4_linear_1794_262)"/>
<path d="M49.5 57H10.5C9.85349 57 9.28199 56.5875 9.07799 55.974L0.0779879 28.974C-0.0765121 28.5165 0.00148791 28.0125 0.283488 27.6225C0.565488 27.231 1.01849 27 1.49999 27H55.5C56.3295 27 57 27.6705 57 28.5C57 29.3295 56.3295 30 55.5 30H3.58199L11.5815 54H49.5C50.3295 54 51 54.6705 51 55.5C51 56.3295 50.3295 57 49.5 57Z" fill="url(#paint5_linear_1794_262)"/>
<defs>
<linearGradient id="paint0_linear_1794_262" x1="-9.15527e-05" y1="0.00109863" x2="47.4384" y2="-15.0199" gradientUnits="userSpaceOnUse">
<stop stop-color="#0194D3"/>
<stop offset="1" stop-color="#00B495"/>
</linearGradient>
<linearGradient id="paint1_linear_1794_262" x1="-9.15527e-05" y1="0.00109863" x2="47.4384" y2="-15.0199" gradientUnits="userSpaceOnUse">
<stop stop-color="#0194D3"/>
<stop offset="1" stop-color="#00B495"/>
</linearGradient>
<linearGradient id="paint2_linear_1794_262" x1="-9.15527e-05" y1="0.00109863" x2="47.4384" y2="-15.0199" gradientUnits="userSpaceOnUse">
<stop stop-color="#0194D3"/>
<stop offset="1" stop-color="#00B495"/>
</linearGradient>
<linearGradient id="paint3_linear_1794_262" x1="-9.15527e-05" y1="0.00109863" x2="47.4384" y2="-15.0199" gradientUnits="userSpaceOnUse">
<stop stop-color="#0194D3"/>
<stop offset="1" stop-color="#00B495"/>
</linearGradient>
<linearGradient id="paint4_linear_1794_262" x1="-9.15527e-05" y1="0.00109863" x2="47.4384" y2="-15.0199" gradientUnits="userSpaceOnUse">
<stop stop-color="#0194D3"/>
<stop offset="1" stop-color="#00B495"/>
</linearGradient>
<linearGradient id="paint5_linear_1794_262" x1="-9.15527e-05" y1="0.00109863" x2="47.4384" y2="-15.0199" gradientUnits="userSpaceOnUse">
<stop stop-color="#0194D3"/>
<stop offset="1" stop-color="#00B495"/>
</linearGradient>
</defs>
</svg>