<svg width="100" height="69" viewBox="0 0 100 69" fill="none" xmlns="http://www.w3.org/2000/svg">
<path d="M10.9307 22H0V48.1221L10.9307 22Z" fill="#FA0C00"/>
<path d="M18.6216 22H29.538V48.1221L18.6216 22Z" fill="#FA0C00"/>
<path d="M14.776 31.6277L21.7331 48.122H17.1686L15.0894 42.8706H9.99792L14.776 31.6277Z" fill="#FA0C00"/>
<path d="M47.3701 38.6121L48.659 42.3052C48.7016 42.3976 48.7658 42.4404 48.8797 42.4404H51.3578C51.4931 42.4404 51.5144 42.3763 51.4931 42.2411L46.3731 28.0308C46.3518 27.9169 46.3304 27.8956 46.2165 27.8956H43.1403C43.0548 27.8956 43.005 27.9597 43.005 28.0522C42.9622 28.7993 42.8982 29.0271 42.8056 29.2477L38.2411 42.2198C38.2198 42.3763 38.2696 42.4404 38.3977 42.4404H40.6124C40.7477 42.4404 40.8118 42.3976 40.8617 42.2624L42.0793 38.6121H47.3701ZM42.7843 36.1997C43.4537 34.1789 44.3367 31.5887 44.6927 30.1087H44.7141C45.1556 31.66 46.1953 34.7339 46.6652 36.1997H42.7843Z" fill="#FA0C00"/>
<path d="M58.0751 42.661C59.4067 42.661 60.8238 42.4191 62.2622 41.7999C62.3762 41.7572 62.3975 41.7075 62.3975 41.6007C62.3547 41.2021 62.3049 40.6257 62.3049 40.1846V26.8068C62.3049 26.7215 62.3049 26.6787 62.1982 26.6787H59.7842C59.6917 26.6787 59.6489 26.7215 59.6489 26.8352V31.368C59.2715 31.3253 59.008 31.304 58.6947 31.304C54.7997 31.304 52.407 33.8728 52.407 37.082C52.4069 40.8037 54.8636 42.661 58.0751 42.661ZM59.6488 40.1846C59.2501 40.3127 58.8085 40.3625 58.3599 40.3625C56.594 40.3625 55.1485 39.3663 55.1485 36.9469C55.1485 34.8051 56.6368 33.5385 58.6092 33.5385C59.0079 33.5385 59.3569 33.5812 59.6488 33.695V40.1846Z" fill="#FA0C00"/>
<path d="M70.0986 31.304C66.7731 31.304 64.7152 33.8514 64.7152 36.9966C64.7152 39.8073 66.353 42.6607 70.0487 42.6607C73.1748 42.6607 75.3681 40.3623 75.3681 36.9253C75.3681 33.8941 73.5095 31.304 70.0986 31.304ZM69.9633 33.5383C71.8432 33.5383 72.6408 35.1536 72.6408 36.9966C72.6408 39.2736 71.4658 40.405 70.0986 40.405C68.4109 40.405 67.414 38.9889 67.414 36.9468C67.414 34.8476 68.475 33.5383 69.9633 33.5383Z" fill="#FA0C00"/>
<path d="M77.8642 26.6787C77.7715 26.6787 77.7075 26.7215 77.7075 26.8352V41.9777C77.7075 42.0417 77.7716 42.1556 77.8642 42.1769C78.9251 42.5042 80.036 42.6609 81.1825 42.6609C84.4653 42.6609 87.6555 40.6257 87.6555 36.527C87.6555 33.5598 85.6189 31.3041 82.4288 31.3041C81.6954 31.3041 81.0117 31.418 80.4135 31.6171L80.385 26.8567C80.385 26.7001 80.3423 26.6788 80.1856 26.6788H77.8642V26.6787ZM84.928 36.7974C84.928 39.2524 83.2475 40.4052 81.4317 40.4052C81.0542 40.4052 80.7196 40.3838 80.4134 40.2913V33.8301C80.7623 33.6949 81.1825 33.581 81.9587 33.581C83.7104 33.5811 84.928 34.6911 84.928 36.7974Z" fill="#FA0C00"/>
<path d="M96.664 37.5943C97.7464 37.5943 98.6365 37.573 98.9427 37.5018C99.0566 37.4805 99.0993 37.4378 99.1207 37.3453C99.1848 37.1034 99.2132 36.5982 99.2132 35.979C99.2132 33.8728 97.9457 31.304 94.6701 31.304C91.3233 31.304 89.4647 34.0293 89.4647 37.1033C89.4647 39.8287 90.9031 42.6607 94.9336 42.6607C96.4433 42.6607 97.4189 42.4188 98.2591 42.0203C98.3445 41.9775 98.3873 41.9064 98.3873 41.7784V39.9354C98.3873 39.8287 98.3232 39.8072 98.2591 39.85C97.4189 40.2058 96.5074 40.3836 95.5104 40.3836C93.2531 40.3836 92.2276 39.1383 92.1636 37.5942H96.664V37.5943ZM92.1636 35.6872C92.3416 34.6056 93.0253 33.4315 94.5563 33.4315C96.244 33.4315 96.6853 34.8476 96.6853 35.4879C96.6853 35.5092 96.6853 35.6018 96.6853 35.6658C96.5928 35.6871 96.308 35.6871 95.4677 35.6871H92.1636V35.6872Z" fill="#FA0C00"/>
</svg>