<svg width="101" height="69" viewBox="0 0 101 69" fill="none" xmlns="http://www.w3.org/2000/svg">
<path d="M43.7937 35.3109C43.7937 40.0434 40.0887 43.5307 35.5419 43.5307C30.995 43.5307 27.2901 40.0434 27.2901 35.3109C27.2901 30.545 30.995 27.0911 35.5419 27.0911C40.0887 27.0911 43.7937 30.545 43.7937 35.3109ZM40.1816 35.3109C40.1816 32.3536 38.0342 30.3301 35.542 30.3301C33.0498 30.3301 30.9025 32.3536 30.9025 35.3109C30.9025 38.2386 33.0498 40.2917 35.542 40.2917C38.0341 40.2917 40.1816 38.2349 40.1816 35.3109Z" fill="#EA4335"/>
<path d="M61.5957 35.3109C61.5957 40.0434 57.8907 43.5307 53.3438 43.5307C48.797 43.5307 45.092 40.0434 45.092 35.3109C45.092 30.5487 48.797 27.0911 53.3438 27.0911C57.8907 27.0911 61.5957 30.545 61.5957 35.3109ZM57.9834 35.3109C57.9834 32.3536 55.836 30.3301 53.3438 30.3301C50.8516 30.3301 48.7043 32.3536 48.7043 35.3109C48.7043 38.2386 50.8516 40.2917 53.3438 40.2917C55.836 40.2917 57.9834 38.2349 57.9834 35.3109Z" fill="#FBBC05"/>
<path d="M78.6554 27.5876V42.3448C78.6554 48.4153 75.073 50.8946 70.8377 50.8946C66.8509 50.8946 64.4514 48.23 63.5464 46.0509L66.6914 44.7426C67.2514 46.0805 68.6234 47.6593 70.8339 47.6593C73.545 47.6593 75.225 45.9879 75.225 42.8414V41.6592H75.0987C74.2903 42.6561 72.7327 43.527 70.7672 43.527C66.6543 43.527 62.8863 39.947 62.8863 35.3405C62.8863 30.7006 66.6543 27.0911 70.7672 27.0911C72.7291 27.0911 74.2866 27.962 75.0987 28.9293H75.225V27.5914H78.6554V27.5876ZM75.4808 35.3405C75.4808 32.4462 73.5487 30.33 71.0899 30.33C68.5977 30.33 66.5096 32.4462 66.5096 35.3405C66.5096 38.2052 68.5976 40.2917 71.0899 40.2917C73.5487 40.2917 75.4808 38.2052 75.4808 35.3405Z" fill="#4285F4"/>
<path d="M84.3112 18.9377V43.0266H80.788V18.9377H84.3112Z" fill="#34A853"/>
<path d="M98.0405 38.0159L100.844 39.8837C99.9392 41.2216 97.7586 43.5267 93.9906 43.5267C89.3177 43.5267 85.8279 39.917 85.8279 35.3069C85.8279 30.4187 89.3474 27.087 93.5864 27.087C97.855 27.087 99.9431 30.4817 100.625 32.3162L101 33.2501L90.0038 37.801C90.8457 39.4501 92.1548 40.2914 93.9906 40.2914C95.8301 40.2914 97.1059 39.3871 98.0405 38.0159ZM89.4105 35.0585L96.761 32.0085C96.3567 30.982 95.1403 30.2667 93.7088 30.2667C91.873 30.2667 89.3178 31.8862 89.4105 35.0585Z" fill="#EA4335"/>
<path d="M13.9543 33.1724V29.685H25.7143C25.8293 30.2927 25.8886 31.0117 25.8886 31.7899C25.8886 34.4063 25.1727 37.6416 22.866 39.9468C20.6223 42.2815 17.7556 43.5268 13.958 43.5268C6.91896 43.5268 1 37.7974 1 30.7634C1 23.7294 6.91896 18 13.958 18C17.8521 18 20.6262 19.5269 22.7104 21.5169L20.2478 23.9777C18.7533 22.5768 16.7284 21.4873 13.9543 21.4873C8.81407 21.4873 4.79393 25.6269 4.79393 30.7634C4.79393 35.8999 8.81407 40.0394 13.9543 40.0394C17.2884 40.0394 19.1872 38.7015 20.4036 37.486C21.3901 36.5002 22.0392 35.092 22.2951 33.1685L13.9543 33.1724Z" fill="#4285F4"/>
</svg>